<svg 
 xmlns="http://www.w3.org/2000/svg"
 xmlns:xlink="http://www.w3.org/1999/xlink"
 width="1040px" height="372px">
<path fill-rule="evenodd"  fill="rgb(255, 255, 255)"
 d="M1039.555,182.134 L1036.552,271.746 C1036.100,285.211 1034.629,297.980 1032.138,310.052 C1029.647,322.124 1025.312,332.687 1019.136,341.741 C1012.957,350.795 1004.450,357.992 993.607,363.331 C982.763,368.671 968.684,371.341 951.377,371.341 C933.910,371.341 919.857,368.671 909.220,363.331 C898.579,357.992 890.359,350.759 884.562,341.625 C878.761,332.495 874.983,321.892 873.225,309.819 C871.464,297.747 870.810,285.059 871.256,271.746 L874.252,182.366 C874.703,168.901 876.212,156.096 878.785,143.944 C881.355,131.796 885.807,121.193 892.139,112.139 C898.470,103.084 907.093,95.888 918.016,90.548 C928.935,85.208 943.051,82.539 960.362,82.539 C977.670,82.539 991.605,85.248 1002.167,90.664 C1012.726,96.083 1020.868,103.356 1026.589,112.487 C1032.311,121.621 1036.014,132.184 1037.698,144.176 C1039.382,156.172 1040.002,168.825 1039.555,182.134 ZM985.558,164.258 C985.358,158.686 984.405,153.694 982.699,149.284 C980.992,144.873 978.250,141.314 974.479,138.604 C970.705,135.898 965.418,134.542 958.619,134.542 C951.816,134.542 946.480,135.858 942.606,138.488 C938.729,141.122 935.754,144.604 933.678,148.935 C931.598,153.270 930.237,158.222 929.587,163.793 C928.936,169.365 928.510,175.169 928.307,181.205 L925.241,272.674 C925.049,278.402 925.053,284.014 925.257,289.506 C925.457,295.001 926.415,299.917 928.124,304.248 C929.833,308.583 932.573,312.105 936.348,314.811 C940.118,317.521 945.485,318.874 952.440,318.874 C959.083,318.874 964.343,317.560 968.221,314.927 C972.094,312.297 975.068,308.855 977.145,304.596 C979.218,300.341 980.582,295.426 981.232,289.854 C981.883,284.282 982.309,278.478 982.511,272.442 L985.570,181.205 C985.762,175.481 985.756,169.829 985.558,164.258 ZM862.555,366.698 L802.975,366.698 L762.052,252.709 L742.810,252.709 L738.989,366.698 L685.204,366.698 L697.407,2.677 L751.191,2.677 L744.592,199.545 L764.530,199.545 L810.010,87.646 L864.723,87.646 L803.942,227.172 L862.555,366.698 ZM658.613,234.601 L545.923,255.959 L545.378,272.210 C545.186,277.938 545.228,283.586 545.505,289.158 C545.782,294.729 546.850,299.721 548.713,304.132 C550.572,308.543 553.390,312.105 557.164,314.811 C560.935,317.521 566.301,318.874 573.256,318.874 C579.900,318.874 585.195,317.713 589.138,315.391 C593.077,313.070 596.077,310.015 598.139,306.221 C600.196,302.430 601.577,298.096 602.284,293.220 C602.987,288.345 603.426,283.354 603.597,278.246 L603.792,272.442 L657.345,272.442 L657.166,277.782 C656.740,290.474 655.294,302.507 652.826,313.882 C650.358,325.258 646.044,335.204 639.887,343.714 C633.726,352.228 625.194,358.960 614.288,363.912 C603.378,368.863 589.349,371.341 572.193,371.341 C554.726,371.341 540.638,368.671 529.921,363.331 C519.203,357.992 510.984,350.759 505.263,341.625 C499.541,332.495 495.800,321.892 494.042,309.819 C492.280,297.747 491.626,285.059 492.072,271.746 L495.068,182.366 C495.520,168.901 497.028,156.096 499.602,143.944 C502.172,131.796 506.624,121.193 512.955,112.139 C519.286,103.084 527.910,95.888 538.833,90.548 C549.752,85.208 563.867,82.539 581.179,82.539 C598.486,82.539 612.426,85.092 622.999,90.200 C633.568,95.307 641.723,102.196 647.460,110.862 C653.197,119.531 656.918,129.550 658.624,140.926 C660.329,152.302 660.971,164.258 660.551,176.794 L658.613,234.601 ZM606.816,161.472 C606.518,156.520 605.470,152.033 603.674,148.007 C601.875,143.984 599.086,140.734 595.307,138.256 C591.525,135.782 586.235,134.542 579.435,134.542 C572.633,134.542 567.256,135.858 563.307,138.488 C559.353,141.122 556.298,144.640 554.143,149.051 C551.985,153.462 550.541,158.494 549.812,164.142 C549.079,169.793 548.615,175.633 548.413,181.669 L547.495,209.064 L606.321,196.992 L607.021,176.098 C607.182,171.302 607.114,166.427 606.816,161.472 ZM458.798,366.698 L405.013,366.698 L411.231,181.205 C411.417,175.633 411.449,170.061 411.327,164.490 C411.203,158.918 410.325,153.967 408.696,149.632 C407.062,145.301 404.438,141.778 400.820,139.069 C397.201,136.363 391.915,135.006 384.960,135.006 C378.468,135.006 373.233,136.671 369.260,139.997 C365.283,143.327 362.204,147.542 360.026,152.650 C357.844,157.757 356.339,163.445 355.513,169.713 C354.683,175.981 354.169,182.134 353.967,188.170 L347.982,366.698 L294.197,366.698 L303.551,87.646 L357.336,87.646 L356.403,115.505 C358.560,111.018 361.331,106.799 364.709,102.852 C368.087,98.906 371.911,95.463 376.183,92.521 C380.455,89.583 385.129,87.262 390.211,85.557 C395.288,83.855 400.613,83.003 406.177,83.003 C420.239,83.003 431.317,85.673 439.408,91.012 C447.495,96.352 453.512,103.589 457.458,112.719 C461.401,121.853 463.753,132.416 464.510,144.408 C465.267,156.404 465.423,169.057 464.977,182.366 L458.798,366.698 ZM264.482,47.715 C259.312,52.050 251.010,54.216 239.574,54.216 C228.754,54.216 220.868,52.050 215.913,47.715 C210.958,43.384 208.636,36.572 208.947,27.285 C209.259,17.999 212.037,11.191 217.283,6.856 C222.528,2.525 230.559,0.355 241.379,0.355 C252.815,0.355 260.972,2.525 265.851,6.856 C270.727,11.191 273.012,17.999 272.701,27.285 C272.390,36.572 269.648,43.384 264.482,47.715 ZM265.809,87.646 L256.455,366.698 L202.670,366.698 L212.024,87.646 L265.809,87.646 ZM190.198,366.698 L131.544,366.698 L81.906,215.332 L60.114,215.332 L55.040,366.698 L0.096,366.698 L11.933,13.588 L66.877,13.588 L61.904,161.936 L82.073,161.936 L138.744,13.588 L197.398,13.588 L132.730,186.080 L190.198,366.698 Z"/>
</svg>