<svg 
 xmlns="http://www.w3.org/2000/svg"
 xmlns:xlink="http://www.w3.org/1999/xlink"
 width="619px" height="619px">
<path fill-rule="evenodd"  fill="rgb(255, 0, 0)"
 d="M309.500,0.0 C480.432,0.0 618.999,138.567 618.999,309.500 C618.999,480.432 480.432,618.999 309.500,618.999 C138.567,618.999 0.0,480.432 0.0,309.500 C0.0,138.567 138.567,0.0 309.500,0.0 Z"/>
<path fill-rule="evenodd"  fill="rgb(255, 255, 255)"
 d="M374.999,345.0 L365.999,315.0 L415.999,315.0 L415.999,345.0 L374.999,345.0 ZM377.0,254.999 L415.0,254.999 L415.0,284.999 L365.999,284.999 L377.0,254.999 ZM392.722,449.80 L344.77,449.362 L302.184,323.993 L284.114,324.98 L280.633,449.731 L235.187,449.995 L243.298,157.216 L288.744,156.952 L285.345,279.672 L302.69,279.574 L348.342,156.606 L396.987,156.323 L344.186,299.628 L392.722,449.80 ZM179.999,284.999 L179.999,254.999 L225.0,254.999 L223.999,284.999 L179.999,284.999 ZM222.999,345.0 L179.999,345.0 L179.999,315.0 L222.999,315.0 L222.999,345.0 Z"/>
</svg>