<svg 
 xmlns="http://www.w3.org/2000/svg"
 xmlns:xlink="http://www.w3.org/1999/xlink"
 width="2506px" height="2372px">
<defs>
<linearGradient id="PSgrad_0" x1="62.932%" x2="0%" y1="0%" y2="77.715%">
  <stop offset="0%" stop-color="rgb(23,255,165)" stop-opacity="0.75" />
  <stop offset="100%" stop-color="rgb(139,0,254)" stop-opacity="0.75" />
</linearGradient>

</defs>
<path fill-rule="evenodd"  fill="rgb(255, 255, 255)"
 d="M234.000,1.000 C349.849,-1.400 428.655,44.304 502.000,87.000 C571.569,127.497 642.304,161.094 709.000,203.000 C773.744,243.679 831.433,291.669 893.000,335.000 C951.870,322.349 1012.133,310.806 1075.000,299.000 C1114.127,291.652 1153.025,295.634 1195.000,289.000 C1225.863,284.122 1270.083,283.983 1301.000,289.000 C1325.998,289.667 1351.003,290.333 1376.000,291.000 C1416.663,296.333 1457.337,301.667 1498.000,307.000 C1537.996,316.332 1578.004,325.668 1618.000,335.000 C1634.998,322.001 1652.002,308.999 1669.000,296.000 C1705.753,269.750 1741.741,243.673 1781.000,219.000 C1884.773,153.784 1989.807,87.882 2108.000,37.000 C2156.611,16.073 2244.518,-16.053 2310.000,11.000 C2377.369,38.832 2386.913,116.228 2405.000,194.000 C2455.393,410.681 2414.481,694.117 2342.000,851.000 C2409.526,944.792 2451.764,1057.580 2484.000,1187.000 C2498.684,1245.952 2505.992,1301.841 2506.000,1375.000 C2506.048,1826.227 2358.077,2115.018 2045.000,2252.000 C1950.201,2293.478 1838.800,2315.434 1726.000,2340.000 C1706.002,2342.000 1685.998,2344.000 1666.000,2346.000 C1611.092,2355.678 1556.333,2355.673 1499.000,2365.000 C1460.337,2365.000 1421.663,2365.000 1383.000,2365.000 C1335.662,2372.521 1273.522,2374.869 1227.000,2367.000 C1211.335,2367.333 1195.665,2367.667 1180.000,2368.000 C1130.005,2366.667 1079.995,2365.333 1030.000,2364.000 C995.337,2361.667 960.663,2359.333 926.000,2357.000 C830.786,2341.202 724.045,2337.264 636.000,2311.000 C338.943,2222.388 170.049,2088.039 62.000,1810.000 C38.129,1748.574 34.158,1676.864 20.000,1605.000 C-5.149,1477.350 -10.165,1294.257 26.000,1173.000 C62.419,1050.890 107.468,947.066 167.000,850.000 C138.426,784.227 117.125,713.834 101.000,634.000 C93.254,595.651 95.660,557.125 89.000,516.000 C82.804,477.745 79.232,407.940 86.000,367.000 C86.333,351.668 86.667,336.332 87.000,321.000 C90.666,288.337 94.334,255.663 98.000,223.000 C112.394,149.684 123.012,65.640 172.000,27.000 C182.835,18.454 197.541,9.189 212.000,5.000 C219.333,3.667 226.667,2.333 234.000,1.000 ZM243.000,79.000 C237.001,81.000 230.999,83.000 225.000,85.000 C197.131,104.572 186.879,177.692 178.000,219.000 C146.184,367.020 161.586,591.786 201.000,717.000 C211.742,751.127 223.471,784.810 237.000,816.000 C241.437,826.228 255.829,846.319 254.000,857.000 C232.002,894.663 209.998,932.337 188.000,970.000 C145.586,1042.511 117.641,1130.484 95.000,1221.000 C68.200,1328.144 75.785,1484.856 97.000,1590.000 C110.919,1658.986 114.086,1728.009 137.000,1787.000 C226.189,2016.615 369.200,2145.540 611.000,2222.000 C677.109,2242.905 749.091,2248.702 826.000,2263.000 C939.777,2284.152 1073.942,2288.997 1205.000,2289.000 C1270.544,2289.002 1338.347,2296.503 1402.000,2286.000 C1437.330,2286.000 1472.670,2286.000 1508.000,2286.000 C1575.993,2278.334 1644.007,2270.666 1712.000,2263.000 C1799.147,2245.514 1890.092,2228.964 1967.000,2199.000 C2133.484,2134.137 2255.872,2032.038 2334.000,1879.000 C2381.099,1786.740 2399.365,1672.319 2421.000,1553.000 C2423.000,1523.670 2425.000,1494.330 2427.000,1465.000 C2427.000,1449.335 2427.000,1433.665 2427.000,1418.000 C2439.697,1338.268 2416.611,1236.148 2401.000,1175.000 C2379.350,1090.200 2348.653,1015.281 2309.000,949.000 C2301.334,934.335 2293.666,919.665 2286.000,905.000 C2274.001,892.668 2261.999,880.332 2250.000,868.000 C2262.332,839.336 2274.668,810.664 2287.000,782.000 C2296.666,751.670 2306.334,721.330 2316.000,691.000 C2347.982,586.887 2360.062,378.208 2336.000,255.000 C2326.728,207.523 2318.452,110.619 2288.000,88.000 C2246.025,56.821 2133.527,111.537 2103.000,125.000 C1981.339,178.657 1861.057,255.114 1757.000,329.000 C1725.719,351.211 1696.103,374.257 1666.000,397.000 C1656.001,404.666 1645.999,412.334 1636.000,420.000 C1602.337,412.334 1568.663,404.666 1535.000,397.000 C1464.407,498.689 1282.283,549.087 1120.000,498.000 C1075.800,484.086 1041.037,461.765 1009.000,436.000 C997.001,423.001 984.999,409.999 973.000,397.000 C957.150,400.555 881.414,422.015 874.000,418.000 C826.671,382.670 779.329,347.330 732.000,312.000 C646.471,251.688 551.996,207.278 459.000,153.000 C399.764,118.426 334.036,78.874 243.000,79.000 ZM345.000,264.000 C475.643,269.962 568.498,337.068 650.000,395.000 C682.279,417.945 725.902,441.214 747.000,475.000 C709.697,484.298 677.344,506.260 647.000,524.000 C606.038,547.947 565.644,569.141 528.000,596.000 C498.670,620.331 469.330,644.669 440.000,669.000 C404.472,697.404 379.386,738.348 346.000,769.000 C345.667,769.000 345.333,769.000 345.000,769.000 C339.667,752.002 334.333,734.998 329.000,718.000 C323.667,689.669 318.333,661.330 313.000,633.000 C297.857,549.544 308.051,437.115 323.000,362.000 C329.992,326.867 332.093,292.605 345.000,264.000 ZM2161.000,265.000 C2165.975,265.555 2164.872,264.810 2167.000,268.000 C2183.545,296.221 2182.849,339.601 2190.000,376.000 C2211.121,483.507 2209.433,627.855 2179.000,725.000 C2174.334,739.998 2169.666,755.001 2165.000,770.000 C2131.351,739.630 2106.537,698.433 2071.000,670.000 C2041.670,645.669 2012.330,621.331 1983.000,597.000 C1945.372,570.129 1904.981,548.906 1864.000,525.000 C1833.269,507.073 1801.482,486.128 1764.000,476.000 C1764.667,475.333 1765.333,474.667 1766.000,474.000 C1776.683,449.518 1827.563,420.009 1850.000,404.000 C1912.237,359.594 1974.201,319.225 2052.000,289.000 C2075.664,282.334 2099.336,275.666 2123.000,269.000 C2135.665,267.667 2148.335,266.333 2161.000,265.000 ZM802.000,730.000 C887.389,728.217 952.148,753.891 988.000,802.000 C1002.595,821.585 1022.416,863.142 994.000,884.000 C977.585,896.049 943.674,892.613 925.000,885.000 C868.175,861.833 816.822,835.308 747.000,823.000 C706.137,815.797 661.712,833.614 637.000,847.000 C626.413,852.735 618.842,861.164 604.000,863.000 C601.606,859.589 600.714,859.764 600.000,854.000 C626.319,801.934 677.551,760.483 737.000,742.000 C758.664,738.000 780.335,734.000 802.000,730.000 ZM1679.000,730.000 C1778.028,727.995 1818.242,763.379 1871.000,806.000 C1883.387,816.007 1915.504,841.793 1905.000,863.000 C1890.507,861.219 1882.443,852.663 1872.000,847.000 C1847.694,833.819 1803.735,816.370 1764.000,823.000 C1691.804,835.045 1641.752,861.536 1584.000,885.000 C1565.377,892.566 1531.351,896.121 1515.000,884.000 C1490.662,865.958 1502.273,827.516 1516.000,808.000 C1540.346,773.385 1583.869,749.167 1630.000,737.000 C1646.332,734.667 1662.668,732.333 1679.000,730.000 ZM748.000,970.000 C852.917,968.620 909.123,1022.847 945.000,1091.000 C955.439,1110.831 985.416,1165.080 956.000,1187.000 C941.299,1197.955 910.102,1195.057 901.000,1181.000 C895.334,1164.002 889.666,1146.998 884.000,1130.000 C864.882,1083.505 823.483,1049.855 764.000,1043.000 C705.621,1036.272 653.149,1089.310 636.000,1126.000 C629.334,1144.332 622.666,1162.668 616.000,1181.000 C606.849,1194.977 575.724,1198.035 561.000,1187.000 C534.677,1167.273 557.995,1116.929 569.000,1098.000 C597.666,1048.695 626.400,1006.104 682.000,984.000 C701.532,976.235 726.117,978.507 748.000,970.000 ZM1741.000,970.000 C1845.610,968.640 1898.045,1023.351 1935.000,1090.000 C1945.897,1109.653 1976.367,1165.117 1947.000,1187.000 C1932.282,1197.967 1901.125,1195.041 1892.000,1181.000 C1886.667,1165.668 1881.333,1150.332 1876.000,1135.000 C1854.732,1083.458 1814.787,1050.638 1749.000,1043.000 C1692.888,1036.485 1639.077,1093.532 1624.000,1130.000 C1618.334,1146.998 1612.666,1164.002 1607.000,1181.000 C1596.204,1197.549 1558.700,1197.717 1547.000,1182.000 C1527.421,1155.698 1551.024,1114.445 1561.000,1095.000 C1586.015,1046.245 1620.516,1004.970 1673.000,984.000 C1693.614,975.763 1719.312,978.338 1741.000,970.000 ZM1248.000,1145.000 C1294.069,1144.209 1337.318,1145.807 1365.000,1163.000 C1363.951,1188.753 1345.564,1198.601 1330.000,1210.000 C1275.044,1250.250 1235.748,1251.981 1180.000,1211.000 C1165.164,1200.094 1144.921,1190.552 1145.000,1165.000 C1146.622,1161.797 1146.849,1160.811 1150.000,1159.000 C1166.871,1149.300 1191.217,1149.455 1214.000,1146.000 C1225.332,1145.667 1236.668,1145.333 1248.000,1145.000 ZM1234.000,1243.000 C1247.665,1243.000 1261.335,1243.000 1275.000,1243.000 C1274.391,1336.484 1331.077,1386.059 1398.000,1413.000 C1427.025,1424.684 1470.698,1436.297 1508.000,1425.000 C1536.369,1416.408 1563.514,1398.833 1580.000,1378.000 C1588.556,1367.189 1595.402,1355.757 1607.000,1348.000 C1610.023,1349.259 1608.196,1347.982 1610.000,1350.000 C1615.246,1364.306 1598.291,1375.892 1592.000,1383.000 C1569.900,1407.970 1543.209,1428.167 1507.000,1439.000 C1500.675,1440.892 1464.601,1442.300 1461.000,1445.000 C1461.000,1445.000 1441.645,1494.463 1439.000,1499.000 C1421.438,1529.126 1400.923,1557.266 1373.000,1577.000 C1242.235,1669.416 1074.420,1570.696 1048.000,1446.000 C997.370,1447.518 958.140,1426.952 933.000,1402.000 C930.066,1399.088 883.565,1352.544 904.000,1348.000 C905.667,1349.000 907.334,1350.000 909.000,1351.000 C932.378,1403.391 1025.744,1451.473 1104.000,1421.000 C1170.223,1395.213 1232.901,1332.610 1234.000,1243.000 ZM273.000,1386.000 C348.097,1385.088 418.503,1389.699 478.000,1403.000 C498.456,1407.573 521.051,1402.570 533.000,1415.000 C533.000,1420.999 533.000,1427.001 533.000,1433.000 C475.989,1451.699 311.236,1428.156 264.000,1413.000 C263.190,1396.841 263.079,1391.683 273.000,1386.000 ZM2244.000,1415.000 C2216.125,1414.895 2190.920,1422.512 2166.000,1427.000 C2123.444,1434.665 2084.280,1429.818 2039.000,1437.000 C2019.751,1440.053 1991.647,1438.875 1976.000,1434.000 C1975.341,1421.863 1975.977,1413.449 1983.000,1409.000 C1997.665,1406.667 2012.335,1404.333 2027.000,1402.000 C2092.324,1389.102 2167.316,1386.902 2242.000,1387.000 C2245.218,1396.544 2245.084,1402.942 2244.000,1415.000 ZM1156.000,1416.000 C1155.667,1416.667 1155.333,1417.333 1155.000,1418.000 C1155.667,1417.333 1156.333,1416.667 1157.000,1416.000 C1156.667,1416.000 1156.333,1416.000 1156.000,1416.000 ZM1151.000,1419.000 C1147.000,1421.333 1143.000,1423.667 1139.000,1426.000 C1141.810,1425.286 1152.790,1419.659 1151.000,1419.000 ZM1134.000,1427.000 C1133.333,1427.333 1132.667,1427.667 1132.000,1428.000 C1132.000,1428.333 1132.000,1428.667 1132.000,1429.000 C1133.333,1428.333 1134.667,1427.667 1136.000,1427.000 C1135.333,1427.000 1134.667,1427.000 1134.000,1427.000 ZM1374.000,1428.000 C1374.667,1428.333 1375.333,1428.667 1376.000,1429.000 C1375.333,1428.667 1374.667,1428.333 1374.000,1428.000 ZM1379.000,1430.000 C1379.667,1430.333 1380.333,1430.667 1381.000,1431.000 C1380.333,1430.667 1379.667,1430.333 1379.000,1430.000 ZM1382.000,1431.000 C1385.666,1432.333 1389.334,1433.667 1393.000,1435.000 C1389.334,1433.667 1385.666,1432.333 1382.000,1431.000 ZM1394.000,1435.000 C1394.667,1435.333 1395.333,1435.667 1396.000,1436.000 C1395.333,1435.667 1394.667,1435.333 1394.000,1435.000 ZM1397.000,1436.000 C1398.000,1436.333 1399.000,1436.667 1400.000,1437.000 C1399.000,1436.667 1398.000,1436.333 1397.000,1436.000 ZM1401.000,1437.000 C1401.667,1437.333 1402.333,1437.667 1403.000,1438.000 C1402.333,1437.667 1401.667,1437.333 1401.000,1437.000 ZM1405.000,1438.000 C1405.667,1438.333 1406.333,1438.667 1407.000,1439.000 C1406.333,1438.667 1405.667,1438.333 1405.000,1438.000 ZM1409.000,1439.000 C1409.667,1439.333 1410.333,1439.667 1411.000,1440.000 C1410.333,1439.667 1409.667,1439.333 1409.000,1439.000 ZM1243.000,1473.000 C1226.560,1481.871 1194.768,1474.533 1182.000,1487.000 C1195.392,1524.885 1234.547,1589.116 1290.000,1552.000 C1296.013,1547.975 1335.643,1497.775 1327.000,1485.000 C1324.644,1481.517 1256.068,1472.785 1243.000,1473.000 ZM491.000,1478.000 C508.086,1477.642 521.699,1479.259 533.000,1483.000 C532.333,1488.999 531.667,1495.001 531.000,1501.000 C492.853,1526.809 391.071,1522.698 334.000,1532.000 C309.276,1536.030 278.062,1537.631 263.000,1527.000 C263.000,1521.334 263.000,1515.666 263.000,1510.000 C315.332,1494.119 376.676,1492.906 437.000,1482.000 C454.998,1480.667 473.002,1479.333 491.000,1478.000 ZM1981.000,1478.000 C2042.555,1477.167 2104.745,1483.281 2158.000,1493.000 C2191.546,1499.122 2223.067,1496.771 2245.000,1513.000 C2245.000,1520.666 2245.000,1528.334 2245.000,1536.000 C2211.845,1527.090 2170.140,1535.809 2133.000,1530.000 C2102.953,1525.300 2078.767,1521.922 2052.000,1517.000 C2033.616,1513.619 1985.890,1511.211 1976.000,1501.000 C1975.790,1490.024 1978.461,1485.418 1981.000,1478.000 ZM510.000,1561.000 C517.666,1562.000 525.334,1563.000 533.000,1564.000 C533.000,1569.999 533.000,1576.001 533.000,1582.000 C524.034,1597.967 496.897,1600.045 479.000,1607.000 C439.707,1622.269 395.903,1638.968 353.000,1649.000 C347.667,1649.333 342.333,1649.667 337.000,1650.000 C307.978,1658.538 292.799,1673.954 261.000,1659.000 C262.333,1654.001 263.667,1649.000 265.000,1644.000 C328.526,1603.458 426.102,1586.220 508.000,1565.000 C508.667,1563.667 509.333,1562.333 510.000,1561.000 ZM1982.000,1561.000 C2039.773,1565.419 2095.906,1586.706 2140.000,1606.000 C2149.999,1608.333 2160.001,1610.667 2170.000,1613.000 C2178.666,1617.333 2187.334,1621.667 2196.000,1626.000 C2214.467,1633.071 2231.840,1636.262 2247.000,1645.000 C2246.000,1652.999 2245.000,1661.001 2244.000,1669.000 C2195.539,1662.905 2142.715,1651.431 2101.000,1635.000 C2090.668,1629.667 2080.332,1624.333 2070.000,1619.000 C2047.010,1611.493 1988.887,1598.584 1976.000,1585.000 C1975.757,1572.872 1979.048,1568.814 1982.000,1561.000 Z"/>
<path fill="url(#PSgrad_0)"
 d="M234.000,1.000 C349.849,-1.400 428.655,44.304 502.000,87.000 C571.569,127.497 642.304,161.094 709.000,203.000 C773.744,243.679 831.433,291.669 893.000,335.000 C951.870,322.349 1012.133,310.806 1075.000,299.000 C1114.127,291.652 1153.025,295.634 1195.000,289.000 C1225.863,284.122 1270.083,283.983 1301.000,289.000 C1325.998,289.667 1351.003,290.333 1376.000,291.000 C1416.663,296.333 1457.337,301.667 1498.000,307.000 C1537.996,316.332 1578.004,325.668 1618.000,335.000 C1634.998,322.001 1652.002,308.999 1669.000,296.000 C1705.753,269.750 1741.741,243.673 1781.000,219.000 C1884.773,153.784 1989.807,87.882 2108.000,37.000 C2156.611,16.073 2244.518,-16.053 2310.000,11.000 C2377.369,38.832 2386.913,116.228 2405.000,194.000 C2455.393,410.681 2414.481,694.117 2342.000,851.000 C2409.526,944.792 2451.764,1057.580 2484.000,1187.000 C2498.684,1245.952 2505.992,1301.841 2506.000,1375.000 C2506.048,1826.227 2358.077,2115.018 2045.000,2252.000 C1950.201,2293.478 1838.800,2315.434 1726.000,2340.000 C1706.002,2342.000 1685.998,2344.000 1666.000,2346.000 C1611.092,2355.678 1556.333,2355.673 1499.000,2365.000 C1460.337,2365.000 1421.663,2365.000 1383.000,2365.000 C1335.662,2372.521 1273.522,2374.869 1227.000,2367.000 C1211.335,2367.333 1195.665,2367.667 1180.000,2368.000 C1130.005,2366.667 1079.995,2365.333 1030.000,2364.000 C995.337,2361.667 960.663,2359.333 926.000,2357.000 C830.786,2341.202 724.045,2337.264 636.000,2311.000 C338.943,2222.388 170.049,2088.039 62.000,1810.000 C38.129,1748.574 34.158,1676.864 20.000,1605.000 C-5.149,1477.350 -10.165,1294.257 26.000,1173.000 C62.419,1050.890 107.468,947.066 167.000,850.000 C138.426,784.227 117.125,713.834 101.000,634.000 C93.254,595.651 95.660,557.125 89.000,516.000 C82.804,477.745 79.232,407.940 86.000,367.000 C86.333,351.668 86.667,336.332 87.000,321.000 C90.666,288.337 94.334,255.663 98.000,223.000 C112.394,149.684 123.012,65.640 172.000,27.000 C182.835,18.454 197.541,9.189 212.000,5.000 C219.333,3.667 226.667,2.333 234.000,1.000 ZM243.000,79.000 C237.001,81.000 230.999,83.000 225.000,85.000 C197.131,104.572 186.879,177.692 178.000,219.000 C146.184,367.020 161.586,591.786 201.000,717.000 C211.742,751.127 223.471,784.810 237.000,816.000 C241.437,826.228 255.829,846.319 254.000,857.000 C232.002,894.663 209.998,932.337 188.000,970.000 C145.586,1042.511 117.641,1130.484 95.000,1221.000 C68.200,1328.144 75.785,1484.856 97.000,1590.000 C110.919,1658.986 114.086,1728.009 137.000,1787.000 C226.189,2016.615 369.200,2145.540 611.000,2222.000 C677.109,2242.905 749.091,2248.702 826.000,2263.000 C939.777,2284.152 1073.942,2288.997 1205.000,2289.000 C1270.544,2289.002 1338.347,2296.503 1402.000,2286.000 C1437.330,2286.000 1472.670,2286.000 1508.000,2286.000 C1575.993,2278.334 1644.007,2270.666 1712.000,2263.000 C1799.147,2245.514 1890.092,2228.964 1967.000,2199.000 C2133.484,2134.137 2255.872,2032.038 2334.000,1879.000 C2381.099,1786.740 2399.365,1672.319 2421.000,1553.000 C2423.000,1523.670 2425.000,1494.330 2427.000,1465.000 C2427.000,1449.335 2427.000,1433.665 2427.000,1418.000 C2439.697,1338.268 2416.611,1236.148 2401.000,1175.000 C2379.350,1090.200 2348.653,1015.281 2309.000,949.000 C2301.334,934.335 2293.666,919.665 2286.000,905.000 C2274.001,892.668 2261.999,880.332 2250.000,868.000 C2262.332,839.336 2274.668,810.664 2287.000,782.000 C2296.666,751.670 2306.334,721.330 2316.000,691.000 C2347.982,586.887 2360.062,378.208 2336.000,255.000 C2326.728,207.523 2318.452,110.619 2288.000,88.000 C2246.025,56.821 2133.527,111.537 2103.000,125.000 C1981.339,178.657 1861.057,255.114 1757.000,329.000 C1725.719,351.211 1696.103,374.257 1666.000,397.000 C1656.001,404.666 1645.999,412.334 1636.000,420.000 C1602.337,412.334 1568.663,404.666 1535.000,397.000 C1464.407,498.689 1282.283,549.087 1120.000,498.000 C1075.800,484.086 1041.037,461.765 1009.000,436.000 C997.001,423.001 984.999,409.999 973.000,397.000 C957.150,400.555 881.414,422.015 874.000,418.000 C826.671,382.670 779.329,347.330 732.000,312.000 C646.471,251.688 551.996,207.278 459.000,153.000 C399.764,118.426 334.036,78.874 243.000,79.000 ZM345.000,264.000 C475.643,269.962 568.498,337.068 650.000,395.000 C682.279,417.945 725.902,441.214 747.000,475.000 C709.697,484.298 677.344,506.260 647.000,524.000 C606.038,547.947 565.644,569.141 528.000,596.000 C498.670,620.331 469.330,644.669 440.000,669.000 C404.472,697.404 379.386,738.348 346.000,769.000 C345.667,769.000 345.333,769.000 345.000,769.000 C339.667,752.002 334.333,734.998 329.000,718.000 C323.667,689.669 318.333,661.330 313.000,633.000 C297.857,549.544 308.051,437.115 323.000,362.000 C329.992,326.867 332.093,292.605 345.000,264.000 ZM2161.000,265.000 C2165.975,265.555 2164.872,264.810 2167.000,268.000 C2183.545,296.221 2182.849,339.601 2190.000,376.000 C2211.121,483.507 2209.433,627.855 2179.000,725.000 C2174.334,739.998 2169.666,755.001 2165.000,770.000 C2131.351,739.630 2106.537,698.433 2071.000,670.000 C2041.670,645.669 2012.330,621.331 1983.000,597.000 C1945.372,570.129 1904.981,548.906 1864.000,525.000 C1833.269,507.073 1801.482,486.128 1764.000,476.000 C1764.667,475.333 1765.333,474.667 1766.000,474.000 C1776.683,449.518 1827.563,420.009 1850.000,404.000 C1912.237,359.594 1974.201,319.225 2052.000,289.000 C2075.664,282.334 2099.336,275.666 2123.000,269.000 C2135.665,267.667 2148.335,266.333 2161.000,265.000 ZM802.000,730.000 C887.389,728.217 952.148,753.891 988.000,802.000 C1002.595,821.585 1022.416,863.142 994.000,884.000 C977.585,896.049 943.674,892.613 925.000,885.000 C868.175,861.833 816.822,835.308 747.000,823.000 C706.137,815.797 661.712,833.614 637.000,847.000 C626.413,852.735 618.842,861.164 604.000,863.000 C601.606,859.589 600.714,859.764 600.000,854.000 C626.319,801.934 677.551,760.483 737.000,742.000 C758.664,738.000 780.335,734.000 802.000,730.000 ZM1679.000,730.000 C1778.028,727.995 1818.242,763.379 1871.000,806.000 C1883.387,816.007 1915.504,841.793 1905.000,863.000 C1890.507,861.219 1882.443,852.663 1872.000,847.000 C1847.694,833.819 1803.735,816.370 1764.000,823.000 C1691.804,835.045 1641.752,861.536 1584.000,885.000 C1565.377,892.566 1531.351,896.121 1515.000,884.000 C1490.662,865.958 1502.273,827.516 1516.000,808.000 C1540.346,773.385 1583.869,749.167 1630.000,737.000 C1646.332,734.667 1662.668,732.333 1679.000,730.000 ZM748.000,970.000 C852.917,968.620 909.123,1022.847 945.000,1091.000 C955.439,1110.831 985.416,1165.080 956.000,1187.000 C941.299,1197.955 910.102,1195.057 901.000,1181.000 C895.334,1164.002 889.666,1146.998 884.000,1130.000 C864.882,1083.505 823.483,1049.855 764.000,1043.000 C705.621,1036.272 653.149,1089.310 636.000,1126.000 C629.334,1144.332 622.666,1162.668 616.000,1181.000 C606.849,1194.977 575.724,1198.035 561.000,1187.000 C534.677,1167.273 557.995,1116.929 569.000,1098.000 C597.666,1048.695 626.400,1006.104 682.000,984.000 C701.532,976.235 726.117,978.507 748.000,970.000 ZM1741.000,970.000 C1845.610,968.640 1898.045,1023.351 1935.000,1090.000 C1945.897,1109.653 1976.367,1165.117 1947.000,1187.000 C1932.282,1197.967 1901.125,1195.041 1892.000,1181.000 C1886.667,1165.668 1881.333,1150.332 1876.000,1135.000 C1854.732,1083.458 1814.787,1050.638 1749.000,1043.000 C1692.888,1036.485 1639.077,1093.532 1624.000,1130.000 C1618.334,1146.998 1612.666,1164.002 1607.000,1181.000 C1596.204,1197.549 1558.700,1197.717 1547.000,1182.000 C1527.421,1155.698 1551.024,1114.445 1561.000,1095.000 C1586.015,1046.245 1620.516,1004.970 1673.000,984.000 C1693.614,975.763 1719.312,978.338 1741.000,970.000 ZM1248.000,1145.000 C1294.069,1144.209 1337.318,1145.807 1365.000,1163.000 C1363.951,1188.753 1345.564,1198.601 1330.000,1210.000 C1275.044,1250.250 1235.748,1251.981 1180.000,1211.000 C1165.164,1200.094 1144.921,1190.552 1145.000,1165.000 C1146.622,1161.797 1146.849,1160.811 1150.000,1159.000 C1166.871,1149.300 1191.217,1149.455 1214.000,1146.000 C1225.332,1145.667 1236.668,1145.333 1248.000,1145.000 ZM1234.000,1243.000 C1247.665,1243.000 1261.335,1243.000 1275.000,1243.000 C1274.391,1336.484 1331.077,1386.059 1398.000,1413.000 C1427.025,1424.684 1470.698,1436.297 1508.000,1425.000 C1536.369,1416.408 1563.514,1398.833 1580.000,1378.000 C1588.556,1367.189 1595.402,1355.757 1607.000,1348.000 C1610.023,1349.259 1608.196,1347.982 1610.000,1350.000 C1615.246,1364.306 1598.291,1375.892 1592.000,1383.000 C1569.900,1407.970 1543.209,1428.167 1507.000,1439.000 C1500.675,1440.892 1464.601,1442.300 1461.000,1445.000 C1461.000,1445.000 1441.645,1494.463 1439.000,1499.000 C1421.438,1529.126 1400.923,1557.266 1373.000,1577.000 C1242.235,1669.416 1074.420,1570.696 1048.000,1446.000 C997.370,1447.518 958.140,1426.952 933.000,1402.000 C930.066,1399.088 883.565,1352.544 904.000,1348.000 C905.667,1349.000 907.334,1350.000 909.000,1351.000 C932.378,1403.391 1025.744,1451.473 1104.000,1421.000 C1170.223,1395.213 1232.901,1332.610 1234.000,1243.000 ZM273.000,1386.000 C348.097,1385.088 418.503,1389.699 478.000,1403.000 C498.456,1407.573 521.051,1402.570 533.000,1415.000 C533.000,1420.999 533.000,1427.001 533.000,1433.000 C475.989,1451.699 311.236,1428.156 264.000,1413.000 C263.190,1396.841 263.079,1391.683 273.000,1386.000 ZM2244.000,1415.000 C2216.125,1414.895 2190.920,1422.512 2166.000,1427.000 C2123.444,1434.665 2084.280,1429.818 2039.000,1437.000 C2019.751,1440.053 1991.647,1438.875 1976.000,1434.000 C1975.341,1421.863 1975.977,1413.449 1983.000,1409.000 C1997.665,1406.667 2012.335,1404.333 2027.000,1402.000 C2092.324,1389.102 2167.316,1386.902 2242.000,1387.000 C2245.218,1396.544 2245.084,1402.942 2244.000,1415.000 ZM1156.000,1416.000 C1155.667,1416.667 1155.333,1417.333 1155.000,1418.000 C1155.667,1417.333 1156.333,1416.667 1157.000,1416.000 C1156.667,1416.000 1156.333,1416.000 1156.000,1416.000 ZM1151.000,1419.000 C1147.000,1421.333 1143.000,1423.667 1139.000,1426.000 C1141.810,1425.286 1152.790,1419.659 1151.000,1419.000 ZM1134.000,1427.000 C1133.333,1427.333 1132.667,1427.667 1132.000,1428.000 C1132.000,1428.333 1132.000,1428.667 1132.000,1429.000 C1133.333,1428.333 1134.667,1427.667 1136.000,1427.000 C1135.333,1427.000 1134.667,1427.000 1134.000,1427.000 ZM1374.000,1428.000 C1374.667,1428.333 1375.333,1428.667 1376.000,1429.000 C1375.333,1428.667 1374.667,1428.333 1374.000,1428.000 ZM1379.000,1430.000 C1379.667,1430.333 1380.333,1430.667 1381.000,1431.000 C1380.333,1430.667 1379.667,1430.333 1379.000,1430.000 ZM1382.000,1431.000 C1385.666,1432.333 1389.334,1433.667 1393.000,1435.000 C1389.334,1433.667 1385.666,1432.333 1382.000,1431.000 ZM1394.000,1435.000 C1394.667,1435.333 1395.333,1435.667 1396.000,1436.000 C1395.333,1435.667 1394.667,1435.333 1394.000,1435.000 ZM1397.000,1436.000 C1398.000,1436.333 1399.000,1436.667 1400.000,1437.000 C1399.000,1436.667 1398.000,1436.333 1397.000,1436.000 ZM1401.000,1437.000 C1401.667,1437.333 1402.333,1437.667 1403.000,1438.000 C1402.333,1437.667 1401.667,1437.333 1401.000,1437.000 ZM1405.000,1438.000 C1405.667,1438.333 1406.333,1438.667 1407.000,1439.000 C1406.333,1438.667 1405.667,1438.333 1405.000,1438.000 ZM1409.000,1439.000 C1409.667,1439.333 1410.333,1439.667 1411.000,1440.000 C1410.333,1439.667 1409.667,1439.333 1409.000,1439.000 ZM1243.000,1473.000 C1226.560,1481.871 1194.768,1474.533 1182.000,1487.000 C1195.392,1524.885 1234.547,1589.116 1290.000,1552.000 C1296.013,1547.975 1335.643,1497.775 1327.000,1485.000 C1324.644,1481.517 1256.068,1472.785 1243.000,1473.000 ZM491.000,1478.000 C508.086,1477.642 521.699,1479.259 533.000,1483.000 C532.333,1488.999 531.667,1495.001 531.000,1501.000 C492.853,1526.809 391.071,1522.698 334.000,1532.000 C309.276,1536.030 278.062,1537.631 263.000,1527.000 C263.000,1521.334 263.000,1515.666 263.000,1510.000 C315.332,1494.119 376.676,1492.906 437.000,1482.000 C454.998,1480.667 473.002,1479.333 491.000,1478.000 ZM1981.000,1478.000 C2042.555,1477.167 2104.745,1483.281 2158.000,1493.000 C2191.546,1499.122 2223.067,1496.771 2245.000,1513.000 C2245.000,1520.666 2245.000,1528.334 2245.000,1536.000 C2211.845,1527.090 2170.140,1535.809 2133.000,1530.000 C2102.953,1525.300 2078.767,1521.922 2052.000,1517.000 C2033.616,1513.619 1985.890,1511.211 1976.000,1501.000 C1975.790,1490.024 1978.461,1485.418 1981.000,1478.000 ZM510.000,1561.000 C517.666,1562.000 525.334,1563.000 533.000,1564.000 C533.000,1569.999 533.000,1576.001 533.000,1582.000 C524.034,1597.967 496.897,1600.045 479.000,1607.000 C439.707,1622.269 395.903,1638.968 353.000,1649.000 C347.667,1649.333 342.333,1649.667 337.000,1650.000 C307.978,1658.538 292.799,1673.954 261.000,1659.000 C262.333,1654.001 263.667,1649.000 265.000,1644.000 C328.526,1603.458 426.102,1586.220 508.000,1565.000 C508.667,1563.667 509.333,1562.333 510.000,1561.000 ZM1982.000,1561.000 C2039.773,1565.419 2095.906,1586.706 2140.000,1606.000 C2149.999,1608.333 2160.001,1610.667 2170.000,1613.000 C2178.666,1617.333 2187.334,1621.667 2196.000,1626.000 C2214.467,1633.071 2231.840,1636.262 2247.000,1645.000 C2246.000,1652.999 2245.000,1661.001 2244.000,1669.000 C2195.539,1662.905 2142.715,1651.431 2101.000,1635.000 C2090.668,1629.667 2080.332,1624.333 2070.000,1619.000 C2047.010,1611.493 1988.887,1598.584 1976.000,1585.000 C1975.757,1572.872 1979.048,1568.814 1982.000,1561.000 Z"/>
</svg>